<svg xmlns="http://www.w3.org/2000/svg" version="1.1" xmlns:xlink="http://www.w3.org/1999/xlink" xmlns:svgjs="http://svgjs.dev/svgjs" viewBox="0 0 9.384517914966464 3.9719497180053516"><g transform="matrix(1,0,0,1,0.4993344069540715,0.5685188043151759)"><rect width="9.384517914966464" height="9.384517914966464" x="-0.4993344069540715" y="-3.274802902795732" fill="#ffffff"></rect><g><path d=" M 1.636962890625 0.010986328125 L 1.828857421875 0.010986328125 Q 1.871337890625 0.010986328125 1.916748046875 0.013916015625 Q 1.962158203125 0.016845703125 2.00537109375 0.0263671875 Q 2.048583984375 0.035888671875 2.08740234375 0.0545654296875 Q 2.126220703125 0.0732421875 2.1551513671875 0.104736328125 Q 2.18408203125 0.13623046875 2.2012939453125 0.1827392578125 Q 2.218505859375 0.229248046875 2.218505859375 0.29443359375 L 2.218505859375 0.355224609375 Q 2.218505859375 0.405029296875 2.2042236328125 0.44677734375 Q 2.18994140625 0.488525390625 2.16650390625 0.5203857421875 Q 2.14306640625 0.55224609375 2.113037109375 0.5731201171875 Q 2.0830078125 0.593994140625 2.051513671875 0.601318359375 L 2.051513671875 0.607177734375 Q 2.14453125 0.6240234375 2.1917724609375 0.6954345703125 Q 2.239013671875 0.766845703125 2.239013671875 0.878173828125 L 2.239013671875 0.94189453125 Q 2.239013671875 1.010009765625 2.2239990234375 1.0601806640625 Q 2.208984375 1.1103515625 2.181884765625 1.1458740234375 Q 2.15478515625 1.181396484375 2.117431640625 1.2041015625 Q 2.080078125 1.226806640625 2.035400390625 1.2396240234375 Q 1.99072265625 1.25244140625 1.940185546875 1.2572021484375 Q 1.8896484375 1.261962890625 1.836181640625 1.261962890625 L 1.636962890625 1.261962890625 L 1.636962890625 0.010986328125 M 1.859619140625 0.54638671875 Q 1.897705078125 0.54638671875 1.92919921875 0.5372314453125 Q 1.960693359375 0.528076171875 1.9830322265625 0.5086669921875 Q 2.00537109375 0.4892578125 2.0174560546875 0.4581298828125 Q 2.029541015625 0.427001953125 2.029541015625 0.383056640625 L 2.029541015625 0.331787109375 Q 2.029541015625 0.287841796875 2.020751953125 0.254150390625 Q 2.011962890625 0.220458984375 1.9918212890625 0.197021484375 Q 1.9716796875 0.173583984375 1.9390869140625 0.1614990234375 Q 1.906494140625 0.1494140625 1.859619140625 0.1494140625 L 1.822998046875 0.1494140625 L 1.822998046875 0.54638671875 L 1.859619140625 0.54638671875 M 1.877197265625 1.130126953125 Q 1.915283203125 1.130126953125 1.9464111328125 1.1202392578125 Q 1.9775390625 1.1103515625 1.9998779296875 1.0894775390625 Q 2.022216796875 1.068603515625 2.0343017578125 1.036376953125 Q 2.04638671875 1.004150390625 2.04638671875 0.960205078125 L 2.04638671875 0.86279296875 Q 2.04638671875 0.81884765625 2.03759765625 0.7847900390625 Q 2.02880859375 0.750732421875 2.0086669921875 0.7276611328125 Q 1.988525390625 0.70458984375 1.956298828125 0.6925048828125 Q 1.924072265625 0.680419921875 1.877197265625 0.680419921875 L 1.822998046875 0.680419921875 L 1.822998046875 1.130126953125 L 1.877197265625 1.130126953125 M 2.548828125 0.010986328125 L 2.76708984375 0.010986328125 L 2.99853515625 1.261962890625 L 2.806640625 1.261962890625 L 2.772216796875 1.037841796875 L 2.543701171875 1.037841796875 L 2.5107421875 1.261962890625 L 2.318115234375 1.261962890625 L 2.548828125 0.010986328125 M 2.750244140625 0.89501953125 L 2.662353515625 0.271728515625 L 2.654296875 0.271728515625 L 2.565673828125 0.89501953125 L 2.750244140625 0.89501953125 M 3.126708984375 0.010986328125 L 3.31640625 0.010986328125 L 3.31640625 1.261962890625 L 3.126708984375 1.261962890625 L 3.126708984375 0.010986328125 M 3.53759765625 0.010986328125 L 3.727294921875 0.010986328125 L 3.727294921875 1.112548828125 L 3.98583984375 1.112548828125 L 3.98583984375 1.261962890625 L 3.53759765625 1.261962890625 L 3.53759765625 0.010986328125 M 4.39013671875 1.27294921875 Q 4.360107421875 1.27294921875 4.324951171875 1.2681884765625 Q 4.289794921875 1.263427734375 4.25537109375 1.248046875 Q 4.220947265625 1.232666015625 4.1890869140625 1.2044677734375 Q 4.1572265625 1.17626953125 4.1326904296875 1.130126953125 Q 4.108154296875 1.083984375 4.093505859375 1.0162353515625 Q 4.078857421875 0.948486328125 4.078857421875 0.854736328125 L 4.078857421875 0.41162109375 Q 4.078857421875 0.317138671875 4.0938720703125 0.2501220703125 Q 4.10888671875 0.18310546875 4.1337890625 0.1373291015625 Q 4.15869140625 0.091552734375 4.1905517578125 0.064453125 Q 4.222412109375 0.037353515625 4.2572021484375 0.0230712890625 Q 4.2919921875 0.0087890625 4.326416015625 0.00439453125 Q 4.36083984375 0 4.39013671875 0 Q 4.41796875 0 4.4520263671875 0.0040283203125 Q 4.486083984375 0.008056640625 4.5201416015625 0.0216064453125 Q 4.55419921875 0.03515625 4.58642578125 0.0618896484375 Q 4.61865234375 0.088623046875 4.6435546875 0.1343994140625 Q 4.66845703125 0.18017578125 4.6834716796875 0.2479248046875 Q 4.698486328125 0.315673828125 4.698486328125 0.41162109375 L 4.698486328125 0.854736328125 Q 4.698486328125 0.94775390625 4.68310546875 1.0147705078125 Q 4.667724609375 1.081787109375 4.642822265625 1.1282958984375 Q 4.617919921875 1.1748046875 4.5853271484375 1.2030029296875 Q 4.552734375 1.231201171875 4.5186767578125 1.2469482421875 Q 4.484619140625 1.2626953125 4.450927734375 1.267822265625 Q 4.417236328125 1.27294921875 4.39013671875 1.27294921875 M 4.39013671875 1.130126953125 Q 4.41796875 1.130126953125 4.4388427734375 1.12060546875 Q 4.459716796875 1.111083984375 4.4732666015625 1.087646484375 Q 4.48681640625 1.064208984375 4.4937744140625 1.0257568359375 Q 4.500732421875 0.9873046875 4.500732421875 0.9287109375 L 4.500732421875 0.359619140625 Q 4.500732421875 0.299560546875 4.4937744140625 0.25927734375 Q 4.48681640625 0.218994140625 4.4732666015625 0.1944580078125 Q 4.459716796875 0.169921875 4.4388427734375 0.15966796875 Q 4.41796875 0.1494140625 4.39013671875 0.1494140625 Q 4.361572265625 0.1494140625 4.34033203125 0.15966796875 Q 4.319091796875 0.169921875 4.30517578125 0.1944580078125 Q 4.291259765625 0.218994140625 4.2843017578125 0.25927734375 Q 4.27734375 0.299560546875 4.27734375 0.359619140625 L 4.27734375 0.9287109375 Q 4.27734375 0.9873046875 4.2843017578125 1.0257568359375 Q 4.291259765625 1.064208984375 4.30517578125 1.087646484375 Q 4.319091796875 1.111083984375 4.34033203125 1.12060546875 Q 4.361572265625 1.130126953125 4.39013671875 1.130126953125 M 4.88525390625 0.010986328125 L 5.074951171875 0.010986328125 L 5.074951171875 0.53466796875 L 5.2998046875 0.53466796875 L 5.2998046875 0.010986328125 L 5.489501953125 0.010986328125 L 5.489501953125 1.261962890625 L 5.2998046875 1.261962890625 L 5.2998046875 0.68408203125 L 5.074951171875 0.68408203125 L 5.074951171875 1.261962890625 L 4.88525390625 1.261962890625 L 4.88525390625 0.010986328125 M 0.10693359375 1.5839355468749998 L 0.298828125 1.5839355468749998 Q 0.34130859375 1.5839355468749998 0.38671875 1.5868652343749998 Q 0.43212890625 1.5897949218749998 0.475341796875 1.5993164062499998 Q 0.5185546875 1.6088378906249998 0.557373046875 1.6275146484374998 Q 0.59619140625 1.6461914062499998 0.6251220703125 1.6776855468749998 Q 0.654052734375 1.7091796874999998 0.6712646484375 1.7556884765624998 Q 0.6884765625 1.8021972656249998 0.6884765625 1.8673828124999998 L 0.6884765625 1.9281738281249998 Q 0.6884765625 1.9779785156249998 0.6741943359375 2.0197265625 Q 0.659912109375 2.061474609375 0.636474609375 2.0933349609375 Q 0.613037109375 2.1251953125 0.5830078125 2.1460693359375 Q 0.552978515625 2.166943359375 0.521484375 2.174267578125 L 0.521484375 2.180126953125 Q 0.614501953125 2.19697265625 0.6617431640625 2.2683837890625 Q 0.708984375 2.339794921875 0.708984375 2.451123046875 L 0.708984375 2.51484375 Q 0.708984375 2.582958984375 0.6939697265625 2.6331298828125 Q 0.678955078125 2.68330078125 0.65185546875 2.7188232421875 Q 0.624755859375 2.754345703125 0.58740234375 2.77705078125 Q 0.550048828125 2.799755859375 0.50537109375 2.8125732421875 Q 0.460693359375 2.825390625 0.41015625 2.8301513671875 Q 0.359619140625 2.834912109375 0.30615234375 2.834912109375 L 0.10693359375 2.834912109375 L 0.10693359375 1.5839355468749998 M 0.32958984375 2.1193359375 Q 0.36767578125 2.1193359375 0.399169921875 2.1101806640625 Q 0.4306640625 2.101025390625 0.4530029296875 2.0816162109375 Q 0.475341796875 2.06220703125 0.4874267578125 2.0310791015625 Q 0.49951171875 1.9999511718749998 0.49951171875 1.9560058593749998 L 0.49951171875 1.9047363281249998 Q 0.49951171875 1.8607910156249998 0.49072265625 1.8270996093749998 Q 0.48193359375 1.7934082031249998 0.4617919921875 1.7699707031249998 Q 0.441650390625 1.7465332031249998 0.4090576171875 1.7344482421874998 Q 0.37646484375 1.7223632812499998 0.32958984375 1.7223632812499998 L 0.29296875 1.7223632812499998 L 0.29296875 2.1193359375 L 0.32958984375 2.1193359375 M 0.34716796875 2.703076171875 Q 0.38525390625 2.703076171875 0.4163818359375 2.6931884765625 Q 0.447509765625 2.68330078125 0.4698486328125 2.6624267578125 Q 0.4921875 2.641552734375 0.5042724609375 2.609326171875 Q 0.516357421875 2.577099609375 0.516357421875 2.533154296875 L 0.516357421875 2.4357421875 Q 0.516357421875 2.391796875 0.507568359375 2.3577392578125 Q 0.498779296875 2.323681640625 0.4786376953125 2.3006103515625 Q 0.45849609375 2.2775390625 0.42626953125 2.2654541015625 Q 0.39404296875 2.253369140625 0.34716796875 2.253369140625 L 0.29296875 2.253369140625 L 0.29296875 2.703076171875 L 0.34716796875 2.703076171875 M 0.881103515625 1.5839355468749998 L 1.3447265625 1.5839355468749998 L 1.3447265625 1.7333496093749998 L 1.07080078125 1.7333496093749998 L 1.07080078125 2.1076171875 L 1.282470703125 2.1076171875 L 1.282470703125 2.25703125 L 1.07080078125 2.25703125 L 1.07080078125 2.685498046875 L 1.35205078125 2.685498046875 L 1.35205078125 2.834912109375 L 0.881103515625 2.834912109375 L 0.881103515625 1.5839355468749998 M 1.634033203125 1.5839355468749998 L 1.852294921875 1.5839355468749998 L 2.083740234375 2.834912109375 L 1.891845703125 2.834912109375 L 1.857421875 2.610791015625 L 1.62890625 2.610791015625 L 1.595947265625 2.834912109375 L 1.4033203125 2.834912109375 L 1.634033203125 1.5839355468749998 M 1.83544921875 2.46796875 L 1.74755859375 1.8446777343749998 L 1.739501953125 1.8446777343749998 L 1.65087890625 2.46796875 L 1.83544921875 2.46796875 M 2.2119140625 1.5839355468749998 L 2.417724609375 1.5839355468749998 Q 2.452880859375 1.5839355468749998 2.4949951171875 1.5868652343749998 Q 2.537109375 1.5897949218749998 2.5792236328125 1.6011474609374998 Q 2.621337890625 1.6124999999999998 2.6605224609375 1.6352050781249998 Q 2.69970703125 1.6579101562499998 2.7301025390625 1.6974609374999998 Q 2.760498046875 1.7370117187499998 2.77880859375 1.7967041015624998 Q 2.797119140625 1.8563964843749998 2.797119140625 1.9413574218749998 L 2.797119140625 1.9728515624999998 Q 2.797119140625 2.115673828125 2.756103515625 2.2053955078125 Q 2.715087890625 2.2951171875 2.63525390625 2.33466796875 L 2.8359375 2.834912109375 L 2.63525390625 2.834912109375 L 2.468994140625 2.36689453125 L 2.39794921875 2.36689453125 L 2.39794921875 2.834912109375 L 2.2119140625 2.834912109375 L 2.2119140625 1.5839355468749998 M 2.426513671875 2.229931640625 Q 2.476318359375 2.229931640625 2.5107421875 2.2189453125 Q 2.545166015625 2.207958984375 2.56640625 2.1819580078125 Q 2.587646484375 2.15595703125 2.59716796875 2.1131103515625 Q 2.606689453125 2.070263671875 2.606689453125 2.007275390625 L 2.606689453125 1.9083984374999998 Q 2.606689453125 1.8600585937499998 2.597900390625 1.8249023437499998 Q 2.589111328125 1.7897460937499998 2.5682373046875 1.7670410156249998 Q 2.54736328125 1.7443359374999998 2.512939453125 1.7333496093749998 Q 2.478515625 1.7223632812499998 2.426513671875 1.7223632812499998 L 2.39794921875 1.7223632812499998 L 2.39794921875 2.229931640625 L 2.426513671875 2.229931640625 M 2.98681640625 1.5839355468749998 L 3.176513671875 1.5839355468749998 L 3.176513671875 2.834912109375 L 2.98681640625 2.834912109375 L 2.98681640625 1.5839355468749998 M 3.397705078125 1.5839355468749998 L 3.551513671875 1.5839355468749998 L 3.854736328125 2.42109375 L 3.859130859375 2.42109375 Q 3.85693359375 2.391796875 3.853271484375 2.355908203125 Q 3.849609375 2.32001953125 3.8466796875 2.2742431640625 Q 3.84375 2.228466796875 3.841552734375 2.17060546875 Q 3.83935546875 2.112744140625 3.83935546875 2.040234375 L 3.83935546875 1.5839355468749998 L 4.00927734375 1.5839355468749998 L 4.00927734375 2.834912109375 L 3.85400390625 2.834912109375 L 3.55224609375 2.0197265625 L 3.54638671875 2.0197265625 Q 3.548583984375 2.052685546875 3.55224609375 2.0911376953125 Q 3.555908203125 2.12958984375 3.558837890625 2.181591796875 Q 3.561767578125 2.23359375 3.56396484375 2.3028076171875 Q 3.566162109375 2.372021484375 3.566162109375 2.467236328125 L 3.566162109375 2.834912109375 L 3.397705078125 2.834912109375 L 3.397705078125 1.5839355468749998 M 4.483154296875 2.846630859375 Q 4.461181640625 2.846630859375 4.431884765625 2.8418701171875 Q 4.402587890625 2.837109375 4.3714599609375 2.821728515625 Q 4.34033203125 2.80634765625 4.310302734375 2.7781494140625 Q 4.2802734375 2.749951171875 4.2564697265625 2.7034423828125 Q 4.232666015625 2.65693359375 4.218017578125 2.5891845703125 Q 4.203369140625 2.521435546875 4.203369140625 2.427685546875 L 4.203369140625 1.9845703124999998 Q 4.203369140625 1.8900878906249998 4.21875 1.8230712890624998 Q 4.234130859375 1.7560546874999998 4.259765625 1.7102783203124998 Q 4.285400390625 1.6645019531249998 4.3187255859375 1.6374023437499998 Q 4.35205078125 1.6103027343749998 4.387939453125 1.5960205078124998 Q 4.423828125 1.5817382812499998 4.458984375 1.5773437499999998 Q 4.494140625 1.5729492187499998 4.524169921875 1.5729492187499998 Q 4.600341796875 1.5729492187499998 4.6527099609375 1.5938232421874998 Q 4.705078125 1.6146972656249998 4.7376708984375 1.6509521484374998 Q 4.770263671875 1.6872070312499998 4.7845458984375 1.7355468749999998 Q 4.798828125 1.7838867187499998 4.798828125 1.8380859374999998 Q 4.798828125 1.8783691406249998 4.7940673828125 1.9124267578124998 Q 4.789306640625 1.9464843749999998 4.78125 1.9874999999999998 L 4.629638671875 1.9874999999999998 L 4.629638671875 1.9281738281249998 Q 4.629638671875 1.7223632812499998 4.51904296875 1.7223632812499998 Q 4.489013671875 1.7223632812499998 4.467041015625 1.7326171874999998 Q 4.445068359375 1.7428710937499998 4.430419921875 1.7674072265624998 Q 4.415771484375 1.7919433593749998 4.4088134765625 1.8322265624999998 Q 4.40185546875 1.8725097656249998 4.40185546875 1.9325683593749998 L 4.40185546875 2.499462890625 Q 4.40185546875 2.558056640625 4.4088134765625 2.596875 Q 4.415771484375 2.635693359375 4.4300537109375 2.659130859375 Q 4.4443359375 2.682568359375 4.4659423828125 2.6924560546875 Q 4.487548828125 2.70234375 4.517578125 2.70234375 Q 4.549072265625 2.70234375 4.57177734375 2.6858642578125 Q 4.594482421875 2.669384765625 4.609130859375 2.6408203125 Q 4.623779296875 2.612255859375 4.6307373046875 2.5734375 Q 4.6376953125 2.534619140625 4.6376953125 2.489208984375 L 4.6376953125 2.32587890625 L 4.540283203125 2.32587890625 L 4.540283203125 2.2013671875 L 4.822265625 2.2013671875 L 4.822265625 2.834912109375 L 4.6962890625 2.834912109375 L 4.67578125 2.716259765625 Q 4.639892578125 2.78583984375 4.5933837890625 2.8162353515625 Q 4.546875 2.846630859375 4.483154296875 2.846630859375 M 4.956298828125 2.581494140625 Q 4.956298828125 2.5412109375 4.9610595703125 2.5071533203125 Q 4.9658203125 2.473095703125 4.975341796875 2.433544921875 L 5.12255859375 2.433544921875 L 5.12255859375 2.4943359375 Q 5.12255859375 2.544873046875 5.1287841796875 2.58369140625 Q 5.135009765625 2.622509765625 5.1492919921875 2.6492431640625 Q 5.16357421875 2.6759765625 5.1873779296875 2.6895263671875 Q 5.211181640625 2.703076171875 5.24560546875 2.703076171875 Q 5.2998046875 2.703076171875 5.328369140625 2.6734130859375 Q 5.35693359375 2.64375 5.35693359375 2.58662109375 Q 5.35693359375 2.55732421875 5.3529052734375 2.5327880859375 Q 5.348876953125 2.508251953125 5.3389892578125 2.48408203125 Q 5.3291015625 2.459912109375 5.312255859375 2.4331787109375 Q 5.29541015625 2.4064453125 5.26904296875 2.373486328125 L 5.0712890625 2.13837890625 Q 5.0185546875 2.07099609375 4.989990234375 2.0025146484375 Q 4.96142578125 1.9340332031249998 4.96142578125 1.8563964843749998 Q 4.96142578125 1.7941406249999998 4.9808349609375 1.7421386718749998 Q 5.000244140625 1.6901367187499998 5.036865234375 1.6524169921874998 Q 5.073486328125 1.6146972656249998 5.1273193359375 1.5938232421874998 Q 5.18115234375 1.5729492187499998 5.249267578125 1.5729492187499998 Q 5.33203125 1.5729492187499998 5.3873291015625 1.5963867187499998 Q 5.442626953125 1.6198242187499998 5.4755859375 1.6579101562499998 Q 5.508544921875 1.6959960937499998 5.5220947265625 1.7432373046874998 Q 5.53564453125 1.7904785156249998 5.53564453125 1.8380859374999998 Q 5.53564453125 1.8783691406249998 5.5294189453125 1.9124267578124998 Q 5.523193359375 1.9464843749999998 5.51513671875 1.9874999999999998 L 5.36865234375 1.9874999999999998 L 5.36865234375 1.9281738281249998 Q 5.36865234375 1.8285644531249998 5.340087890625 1.7754638671874998 Q 5.3115234375 1.7223632812499998 5.2470703125 1.7223632812499998 Q 5.193603515625 1.7223632812499998 5.167236328125 1.7520263671874998 Q 5.140869140625 1.7816894531249998 5.140869140625 1.8314941406249998 Q 5.140869140625 1.8578613281249998 5.1448974609375 1.8791015624999998 Q 5.14892578125 1.9003417968749998 5.1566162109375 1.9182861328124998 Q 5.164306640625 1.9362304687499998 5.17529296875 1.9530761718749998 Q 5.186279296875 1.9699218749999998 5.2001953125 1.9882324218749998 L 5.420654296875 2.254833984375 Q 5.480712890625 2.333203125 5.512939453125 2.4053466796875 Q 5.545166015625 2.477490234375 5.545166015625 2.558056640625 Q 5.545166015625 2.62470703125 5.5242919921875 2.678173828125 Q 5.50341796875 2.731640625 5.464599609375 2.768994140625 Q 5.42578125 2.80634765625 5.370849609375 2.8264892578125 Q 5.31591796875 2.846630859375 5.2470703125 2.846630859375 Q 5.162109375 2.846630859375 5.1060791015625 2.82392578125 Q 5.050048828125 2.801220703125 5.0167236328125 2.7638671875 Q 4.9833984375 2.726513671875 4.9698486328125 2.67890625 Q 4.956298828125 2.631298828125 4.956298828125 2.581494140625" fill="#262626" fill-rule="nonzero"></path></g><g></g><g clip-path="url(#SvgjsClipPath1002)"><g clip-path="url(#SvgjsClipPath1000859b01da-420d-4b68-8426-89f6f3dd5088)"><path d=" M 7.355769020065813 0.45193513476022285 C 7.433000134133297 0.3985953963363984 7.479128029441741 0.3107428300291862 7.47918585005048 0.2168824585617558 C 7.4790035853994645 0.05896765470959678 7.351033797979795 -0.06900213271008272 7.193118994127627 -0.06918439736110438 C 7.035198039562895 -0.06901081024914062 6.907218669750267 0.05896151379329606 6.907036388226453 0.2168824585617558 C 6.90710099371545 0.3099711688273735 6.952512555176938 0.39719169214172345 7.028736470576041 0.45062788656103936 L 5.997900390624993 2.2360926769581915 L 6.383570109337935 2.2360926769581915 L 6.017398863764487 2.870328553253824 L 6.0563800600651545 2.8928352722492465 L 6.435545037738831 2.2360611770015857 L 7.1693680268462385 2.2360611770015857 L 7.1693680268462385 2.9040650067794984 L 8.385833351080016 2.9040650067794984 L 8.00017938234538 2.2360611770015857 L 8.385833351080016 2.2360611770015857 Z M 6.952065576195597 0.2168824585617558 C 6.952256417493841 0.08387495356202154 7.060032739236415 -0.02390136818052871 7.193040244236129 -0.024092209478755226 C 7.326047749235823 -0.02390136818051853 7.4338240709783765 0.08387495356204192 7.43401491227662 0.21688245856175242 C 7.43395118656517 0.2946500453277512 7.396317131183365 0.36759499382616706 7.332978801460945 0.4127176887849989 L 7.191732996036938 0.16805752582152128 L 7.051227439593191 0.4114261905641319 C 6.988961336581711 0.3661700727921664 6.952102615776781 0.2938576650122448 6.952065576195584 0.2168824585617558 Z M 7.294233854834811 0.43539765754175985 C 7.26258118637651 0.45021010746224 7.2280660832799235 0.4579034271711546 7.1931189941276195 0.45793587649378475 C 7.1574431531109095 0.45789495037776806 7.122227961981922 0.44987682159075537 7.090051136110816 0.4344684088218591 L 7.191874745841661 0.25806865182489125 Z M 6.461532501939276 2.1910792389673532 L 7.191874745841661 0.9261039815594097 L 7.92220123976574 2.1910792389673532 L 7.214381464837077 2.1910792389673532 L 7.214381464837077 1.9164311173143862 L 7.1693680268462385 1.9164311173143862 L 7.1693680268462385 2.1910792389673532 Z M 8.307855208500367 2.8590988187235724 L 7.21436571485877 2.8590988187235724 L 7.21436571485877 2.2361241769147973 L 7.948188703966185 2.2361241769147973 Z M 7.191858995863354 0.8360928555560465 L 6.4095418235600805 2.191110738923959 L 6.075862783226341 2.191110738923959 L 7.067481417202188 0.4735441049923538 C 7.106540710704492 0.49287067984696165 7.149524091186958 0.5029482778286823 7.193103244149313 0.5029965644195247 C 7.235948611240142 0.5029426117434309 7.278226688726485 0.49319690106458924 7.31677207378684 0.47448910369055053 L 8.307855208500367 2.191110738923959 L 7.97416041818833 2.191110738923959 Z" fill="#000000" transform="matrix(1,0,0,1,0,0)" fill-rule="nonzero"></path></g></g></g><defs><clipPath id="SvgjsClipPath1002"><path d=" M 5.997900390625 -0.06918439736110438 h 2.3879487104333212 v 2.9732809040972086 h -2.3879487104333212 Z"></path></clipPath><clipPath id="SvgjsClipPath1000859b01da-420d-4b68-8426-89f6f3dd5088"><path d=" M 5.997900390625 -0.06918439736110438 L 8.385849101058321 -0.06918439736110438 L 8.385849101058321 2.904096506736104 L 5.997900390625 2.904096506736104 Z"></path></clipPath></defs></svg>